<svg width="25" height="24" viewBox="0 0 25 24" fill="none" xmlns="http://www.w3.org/2000/svg">
<path d="M21.66 1H2.34C1.87537 1 1.5 1.37537 1.5 1.84V21.16C1.5 21.6246 1.87537 22 2.34 22H21.66C22.1246 22 22.5 21.6246 22.5 21.16V1.84C22.5 1.37537 22.1246 1 21.66 1ZM19.2345 7.12937H17.5571C16.242 7.12937 15.9874 7.75412 15.9874 8.67287V10.6967H19.1269L18.7174 13.8651H15.9874V22H12.714V13.8678H9.97612V10.6967H12.714V8.3605C12.714 5.64887 14.3704 4.171 16.7906 4.171C17.9509 4.171 18.9457 4.25763 19.2371 4.297V7.12937H19.2345Z" fill="#295C7A"/>
</svg>
