<svg width="25" height="24" viewBox="0 0 25 24" fill="none" xmlns="http://www.w3.org/2000/svg">
<path d="M12.4973 6.11248C9.65795 6.11248 7.36644 8.51861 7.36644 11.5C7.36644 14.4814 9.65795 16.8875 12.4973 16.8875C15.3367 16.8875 17.6282 14.4814 17.6282 11.5C17.6282 8.51861 15.3367 6.11248 12.4973 6.11248ZM12.4973 15.0015C10.6611 15.0015 9.16262 13.4281 9.16262 11.5C9.16262 9.57195 10.6611 7.99851 12.4973 7.99851C14.3335 7.99851 15.832 9.57195 15.832 11.5C15.832 13.4281 14.3335 15.0015 12.4973 15.0015ZM17.8383 4.63624C17.1754 4.63624 16.64 5.19837 16.64 5.89446C16.64 6.59056 17.1754 7.15269 17.8383 7.15269C18.5013 7.15269 19.0366 6.59318 19.0366 5.89446C19.0368 5.72917 19.0059 5.56546 18.9458 5.41272C18.8856 5.25997 18.7974 5.12118 18.6861 5.0043C18.5748 4.88742 18.4426 4.79475 18.2971 4.73159C18.1516 4.66843 17.9957 4.63603 17.8383 4.63624ZM22.4989 11.5C22.4989 10.05 22.5114 8.61317 22.4338 7.16582C22.3563 5.48469 21.9911 3.99268 20.8203 2.76335C19.647 1.53139 18.2286 1.15051 16.6275 1.06908C15.2466 0.987647 13.8782 1.00078 12.4998 1.00078C11.1189 1.00078 9.75051 0.987647 8.3721 1.06908C6.77105 1.15051 5.35012 1.53402 4.17935 2.76335C3.00608 3.9953 2.64334 5.48469 2.56579 7.16582C2.48824 8.6158 2.50074 10.0526 2.50074 11.5C2.50074 12.9474 2.48824 14.3868 2.56579 15.8342C2.64334 17.5153 3.00858 19.0073 4.17935 20.2367C5.35262 21.4686 6.77105 21.8495 8.3721 21.9309C9.75301 22.0124 11.1214 21.9992 12.4998 21.9992C13.8807 21.9992 15.2491 22.0124 16.6275 21.9309C18.2286 21.8495 19.6495 21.466 20.8203 20.2367C21.9936 19.0047 22.3563 17.5153 22.4338 15.8342C22.5139 14.3868 22.4989 12.95 22.4989 11.5ZM20.2974 17.6939C20.1148 18.172 19.8947 18.5292 19.5419 18.897C19.1892 19.2674 18.8515 19.4985 18.3962 19.6903C17.0803 20.2393 13.9558 20.1158 12.4973 20.1158C11.0389 20.1158 7.9118 20.2393 6.59593 19.6929C6.14064 19.5012 5.80041 19.27 5.45018 18.8996C5.09745 18.5292 4.87731 18.1746 4.69469 17.6966C4.17434 16.3123 4.29192 13.0314 4.29192 11.5C4.29192 9.96859 4.17434 6.68512 4.69469 5.30344C4.87731 4.82537 5.09745 4.46812 5.45018 4.10038C5.80291 3.73263 6.14064 3.49884 6.59593 3.30709C7.9118 2.76072 11.0389 2.88418 12.4973 2.88418C13.9558 2.88418 17.0828 2.76072 18.3987 3.30709C18.854 3.49884 19.1942 3.73 19.5444 4.10038C19.8972 4.47075 20.1173 4.82537 20.2999 5.30344C20.8203 6.68512 20.7027 9.96859 20.7027 11.5C20.7027 13.0314 20.8203 16.3123 20.2974 17.6939Z" fill="#295C7A"/>
</svg>
