<svg width="25" height="24" viewBox="0 0 25 24" fill="none" xmlns="http://www.w3.org/2000/svg">
<path d="M22.5 5.01939C21.7277 5.35134 20.8873 5.59025 20.0217 5.68329C20.9204 5.15125 21.5934 4.31072 21.9145 3.31939C21.0711 3.8193 20.1473 4.16985 19.1838 4.35548C18.7811 3.92653 18.2941 3.5848 17.7531 3.3516C17.2121 3.11839 16.6287 2.99871 16.0392 3.00001C13.6543 3.00001 11.7363 4.92634 11.7363 7.29024C11.7363 7.6222 11.7767 7.95415 11.8423 8.27353C8.27118 8.08743 5.08623 6.38743 2.96881 3.78463C2.583 4.44128 2.38082 5.18895 2.38331 5.94986C2.38331 7.43862 3.14295 8.75134 4.30135 9.52338C3.61869 9.49659 2.95201 9.30962 2.35555 8.97767V9.03048C2.35555 11.1152 3.83446 12.8429 5.80549 13.2402C5.43541 13.336 5.0547 13.385 4.67234 13.3861C4.3922 13.3861 4.12721 13.3584 3.85969 13.3207C4.40482 15.0207 5.99225 16.2555 7.88253 16.2957C6.40362 17.45 4.5512 18.129 2.53978 18.129C2.17888 18.129 1.84575 18.1164 1.5 18.0762C3.40794 19.2959 5.67173 20 8.10966 20C16.0241 20 20.3548 13.4666 20.3548 7.79572C20.3548 7.60962 20.3548 7.42353 20.3422 7.23743C21.1801 6.62634 21.9145 5.86939 22.5 5.01939Z" fill="#295C7A"/>
</svg>
