<svg width="73" height="27" viewBox="0 0 73 27" fill="none" xmlns="http://www.w3.org/2000/svg">
<path d="M2.048 18.392V3.608L0.248 3.416V1.808H7.136V3.416L5.072 3.632L5.048 18.464L10.544 18.128L12.176 15.32L13.496 15.896L12.704 20H0.2V18.752L2.048 18.392ZM16.7456 18.512V3.224L14.9936 2.72V1.448L19.1456 0.943999L19.6976 1.184V18.488L21.7856 18.776V20H14.9696V18.776L16.7456 18.512ZM30.1099 6.488C31.6459 6.488 32.8379 6.944 33.6859 7.856C34.5499 8.768 34.9819 10.048 34.9819 11.696C34.9819 12.4 34.9259 13.064 34.8139 13.688H26.3419C26.3739 15.176 26.7499 16.336 27.4699 17.168C28.2059 18 29.2459 18.416 30.5899 18.416C31.1819 18.416 31.8139 18.352 32.4859 18.224C33.1579 18.08 33.7019 17.904 34.1179 17.696L34.6219 18.848C34.1099 19.296 33.3659 19.656 32.3899 19.928C31.4139 20.184 30.4459 20.312 29.4859 20.312C27.5339 20.296 26.0219 19.688 24.9499 18.488C23.8779 17.288 23.3419 15.656 23.3419 13.592C23.3419 12.232 23.6299 11.016 24.2059 9.944C24.7819 8.856 25.5819 8.008 26.6059 7.4C27.6299 6.792 28.7979 6.488 30.1099 6.488ZM29.5579 7.904C28.6779 7.904 27.9499 8.264 27.3739 8.984C26.8139 9.704 26.4779 10.744 26.3659 12.104H31.9819C31.9979 11.928 32.0059 11.664 32.0059 11.312C32.0059 10.128 31.7499 9.296 31.2379 8.816C30.9179 8.208 30.3579 7.904 29.5579 7.904ZM43.4146 6.44C44.9026 6.44 46.0946 6.768 46.9906 7.424C47.3106 6.912 48.0226 6.656 49.1266 6.656H50.3986V8.816H48.0706C48.3426 9.36 48.4786 10.008 48.4786 10.76C48.4786 11.768 48.2306 12.632 47.7346 13.352C47.2386 14.072 46.5746 14.616 45.7426 14.984C44.9106 15.336 43.9826 15.512 42.9586 15.512C42.1266 15.512 41.3506 15.4 40.6306 15.176C40.5346 15.432 40.4866 15.696 40.4866 15.968C40.4866 16.24 40.4866 16.392 40.4866 16.424C40.4866 16.872 40.6066 17.208 40.8466 17.432C41.1026 17.656 41.5026 17.776 42.0466 17.792C42.5746 17.824 43.5506 17.84 44.9746 17.84C46.8946 17.84 48.2066 18.168 48.9106 18.824C49.6146 19.48 49.9666 20.4 49.9666 21.584C49.9666 22.544 49.6786 23.368 49.1026 24.056C48.5266 24.76 47.7266 25.296 46.7026 25.664C45.6946 26.032 44.5346 26.216 43.2226 26.216C41.5426 26.216 40.1586 25.944 39.0706 25.4C37.9826 24.856 37.4386 23.968 37.4386 22.736C37.4386 22.08 37.6306 21.464 38.0146 20.888C38.4146 20.328 38.8866 19.888 39.4306 19.568C39.0146 19.424 38.7106 19.248 38.5186 19.04C38.3266 18.816 38.2066 18.592 38.1586 18.368C38.1266 18.128 38.1106 17.824 38.1106 17.456C38.1106 17.12 38.2546 16.68 38.5426 16.136C38.8306 15.576 39.1826 15.112 39.5986 14.744C38.2546 13.976 37.5826 12.784 37.5826 11.168C37.5826 10.128 37.8546 9.256 38.3986 8.552C38.9426 7.848 39.6546 7.32 40.5346 6.968C41.4146 6.616 42.3746 6.44 43.4146 6.44ZM42.9586 7.808C42.2066 7.808 41.6066 8.032 41.1586 8.48C40.7106 8.928 40.4866 9.616 40.4866 10.544C40.4866 11.584 40.7106 12.424 41.1586 13.064C41.6066 13.704 42.3106 14.024 43.2706 14.024C44.1186 14.024 44.7266 13.768 45.0946 13.256C45.4626 12.744 45.6466 11.992 45.6466 11C45.6466 8.872 44.7506 7.808 42.9586 7.808ZM40.6786 19.856C40.3106 20.384 40.1266 21.048 40.1266 21.848C40.1266 22.808 40.4626 23.52 41.1346 23.984C41.8066 24.464 42.6626 24.704 43.7026 24.704C44.9186 24.704 45.8386 24.512 46.4626 24.128C47.1026 23.744 47.4226 23.136 47.4226 22.304C47.4226 21.744 47.3346 21.296 47.1586 20.96C46.9826 20.624 46.6706 20.376 46.2226 20.216C45.7746 20.056 45.1346 19.976 44.3026 19.976L42.6226 19.952C41.7906 19.952 41.1426 19.92 40.6786 19.856ZM57.5693 6.608C59.1213 6.608 60.3213 6.952 61.1693 7.64C62.0173 8.328 62.4413 9.48 62.4413 11.096V18.776H63.9293V19.736C63.6413 19.912 63.2653 20.048 62.8013 20.144C62.3373 20.256 61.8813 20.312 61.4333 20.312C60.8573 20.312 60.4413 20.2 60.1853 19.976C59.9293 19.736 59.7933 19.352 59.7773 18.824C58.8973 19.816 57.6573 20.312 56.0573 20.312C55.2413 20.312 54.5133 20.16 53.8733 19.856C53.2333 19.536 52.7373 19.096 52.3853 18.536C52.0333 17.976 51.8573 17.344 51.8573 16.64C51.8573 15.584 52.2493 14.712 53.0333 14.024C53.8173 13.336 54.7933 12.84 55.9613 12.536C57.1293 12.216 58.3053 12.056 59.4893 12.056V11.336C59.4893 10.248 59.2413 9.488 58.7453 9.056C58.2493 8.624 57.5133 8.408 56.5373 8.408C56.0093 8.408 55.4093 8.496 54.7373 8.672C54.0653 8.848 53.4813 9.072 52.9853 9.344L52.4333 8.024C52.9773 7.576 53.7533 7.232 54.7613 6.992C55.7853 6.736 56.7213 6.608 57.5693 6.608ZM59.4893 13.496C58.2893 13.496 57.2093 13.712 56.2493 14.144C55.3053 14.576 54.8333 15.264 54.8333 16.208C54.8333 17.76 55.6573 18.536 57.3053 18.536C57.6893 18.536 58.0813 18.456 58.4813 18.296C58.8973 18.136 59.2253 17.944 59.4653 17.72L59.4893 13.496ZM67.4191 18.512V3.224L65.6671 2.72V1.448L69.8191 0.943999L70.3711 1.184V18.488L72.4591 18.776V20H65.6431V18.776L67.4191 18.512Z" fill="#252B42"/>
</svg>
