<svg width="23" height="22" viewBox="0 0 23 22" fill="none" xmlns="http://www.w3.org/2000/svg">
<path d="M20.6308 8.41243C20.5731 8.24262 20.467 8.09341 20.3255 7.98322C20.184 7.87303 20.0133 7.80669 19.8346 7.79238L14.6054 7.37688L12.3426 2.36786C12.2706 2.20653 12.1533 2.0695 12.0051 1.97332C11.8569 1.87714 11.684 1.8259 11.5073 1.82581C11.3306 1.82571 11.1577 1.87675 11.0094 1.97277C10.861 2.0688 10.7437 2.20569 10.6714 2.36694L8.4086 7.37688L3.17945 7.79238C3.00376 7.8063 2.8358 7.87054 2.69566 7.97742C2.55552 8.08429 2.44914 8.22928 2.38925 8.39503C2.32935 8.56079 2.31848 8.74028 2.35793 8.91205C2.39737 9.08383 2.48547 9.24059 2.61168 9.36361L6.47599 13.1307L5.10931 19.0487C5.06782 19.2278 5.08112 19.4153 5.14749 19.5868C5.21386 19.7583 5.33024 19.9058 5.48153 20.0103C5.63282 20.1149 5.81202 20.1715 5.9959 20.1729C6.17977 20.1743 6.35982 20.1204 6.51268 20.0182L11.507 16.6886L16.5014 20.0182C16.6576 20.1219 16.8419 20.1753 17.0294 20.1712C17.2168 20.1671 17.3986 20.1057 17.5501 19.9952C17.7017 19.8847 17.8157 19.7305 17.877 19.5532C17.9383 19.376 17.9438 19.1842 17.8928 19.0037L16.2152 13.1334L20.3758 9.38929C20.6482 9.14347 20.7482 8.76007 20.6308 8.41243Z" fill="#F3CD03"/>
</svg>
