<svg width="23" height="22" viewBox="0 0 23 22" fill="none" xmlns="http://www.w3.org/2000/svg">
<path d="M6.53233 13.1308L5.16565 19.0488C5.12333 19.228 5.13603 19.4158 5.20211 19.5877C5.26818 19.7596 5.38454 19.9075 5.536 20.0122C5.68746 20.1169 5.86698 20.1735 6.0511 20.1746C6.23523 20.1757 6.41541 20.1212 6.5681 20.0183L11.5624 16.6888L16.5568 20.0183C16.713 20.1221 16.8973 20.1755 17.0848 20.1714C17.2723 20.1673 17.454 20.1058 17.6055 19.9953C17.7571 19.8849 17.8712 19.7306 17.9324 19.5534C17.9937 19.3761 17.9992 19.1844 17.9482 19.0039L16.2706 13.1336L20.4312 9.38944C20.5644 9.26946 20.6596 9.11304 20.7049 8.93955C20.7502 8.76605 20.7437 8.58308 20.6861 8.41327C20.6285 8.24345 20.5224 8.09424 20.3809 7.98408C20.2394 7.87392 20.0688 7.80764 19.89 7.79345L14.6609 7.37703L12.398 2.36801C12.3259 2.20672 12.2086 2.06976 12.0603 1.97366C11.9121 1.87755 11.7391 1.82642 11.5624 1.82642C11.3857 1.82642 11.2128 1.87755 11.0646 1.97366C10.9163 2.06976 10.799 2.20672 10.7268 2.36801L8.46402 7.37703L3.23487 7.79254C3.05918 7.80645 2.89122 7.87069 2.75108 7.97757C2.61094 8.08445 2.50456 8.22943 2.44467 8.39518C2.38477 8.56094 2.3739 8.74044 2.41335 8.91221C2.45279 9.08398 2.54089 9.24074 2.6671 9.36376L6.53233 13.1308ZM9.1492 9.16288C9.31292 9.14998 9.47016 9.09328 9.60442 8.99871C9.73869 8.90414 9.84505 8.77519 9.91234 8.62538L11.5624 4.97387L13.2125 8.62538C13.2798 8.77519 13.3862 8.90414 13.5205 8.99871C13.6547 9.09328 13.812 9.14998 13.9757 9.16288L17.6189 9.45181L14.6187 12.1521C14.3582 12.387 14.2545 12.7484 14.3499 13.0859L15.4992 17.108L12.0724 14.8231C11.922 14.7222 11.745 14.6683 11.5638 14.6683C11.3827 14.6683 11.2056 14.7222 11.0552 14.8231L7.47433 17.2107L8.43742 13.0409C8.47274 12.8876 8.468 12.7277 8.42366 12.5767C8.37933 12.4257 8.29689 12.2887 8.18427 12.1787L5.39771 9.4619L9.1492 9.16288Z" fill="#F3CD03"/>
</svg>
