<svg width="49" height="48" viewBox="0 0 49 48" fill="none" xmlns="http://www.w3.org/2000/svg">
<g clip-path="url(#clip0_964_6358)">
<path d="M17.4061 11.4317H30.4387C30.6899 11.4162 30.89 11.216 30.9055 10.9649C30.9225 10.6901 30.7135 10.4538 30.4387 10.437H17.4061C17.3857 10.4357 17.3653 10.4357 17.3449 10.437C17.0702 10.4539 16.8613 10.6902 16.8781 10.9649C16.895 11.2396 17.1314 11.4486 17.4061 11.4317Z" fill="#295C7A"/>
<path d="M18.7167 29.8724V29.8687C17.5809 29.8686 16.492 30.3213 15.6912 31.1266C14.8887 31.9295 14.438 33.0183 14.4384 34.1535C14.4392 36.5171 16.3559 38.4325 18.7195 38.4317C21.0831 38.431 22.9985 36.5142 22.9977 34.1507C22.997 31.7871 21.0803 29.8717 18.7167 29.8724ZM21.0362 36.4755C19.7527 37.7576 17.6728 37.7565 16.3906 36.473C15.1085 35.1895 15.1096 33.1095 16.3931 31.8273C17.6767 30.5452 19.7566 30.5463 21.0388 31.8298V31.8261C21.6562 32.4424 22.0021 33.2797 21.9996 34.1521C21.9995 35.0237 21.653 35.8595 21.0362 36.4755Z" fill="#295C7A"/>
<path d="M33.7801 16.896H14.0628C13.8117 16.9114 13.6116 17.1117 13.5961 17.3628C13.5791 17.6375 13.7881 17.8739 14.0628 17.8907H33.7801C34.0312 17.8753 34.2314 17.675 34.2469 17.4239C34.2637 17.1493 34.0547 16.9129 33.7801 16.896Z" fill="#295C7A"/>
<path d="M38.6163 7.60906L38.6013 7.57145L38.5919 7.55265V7.54325L38.5787 7.52632L33.1257 2.07333L33.0938 2.04513L33.0731 2.03385H33.0599L33.0374 2.02444H33.0148C32.9771 2.01156 32.9379 2.00338 32.8982 2H10.8437V2.00188C9.84175 2.00498 9.03039 2.81644 9.02728 3.81829V37.2244C9.03039 38.2263 9.84185 39.0378 10.8437 39.0409H14.7454C14.8691 39.2508 15.0304 39.4363 15.2211 39.588V45.4265C15.2021 45.5512 15.2333 45.6782 15.3076 45.78C15.3079 45.7804 15.3082 45.7807 15.3085 45.781C15.4825 45.9929 15.7953 46.0236 16.0071 45.8496L18.6716 43.6627L21.2909 45.8364C21.3804 45.9149 21.4953 45.9583 21.6143 45.9586C21.6175 45.9586 21.6207 45.9585 21.6238 45.9585C21.8906 45.9523 22.1019 45.7309 22.0957 45.4641V39.6858C22.3326 39.5138 22.5338 39.2972 22.688 39.0484H36.8263C37.3084 39.0482 37.7705 38.856 38.1105 38.5144C38.4518 38.1748 38.6439 37.7134 38.6445 37.232V7.75197C38.6423 7.70317 38.6328 7.65503 38.6163 7.60906ZM33.357 3.70923L37.1177 7.46991L34.1769 7.46803C33.9595 7.46794 33.7511 7.38135 33.5977 7.22735C33.4437 7.07391 33.3571 6.86557 33.357 6.6482V3.70923ZM21.1254 44.4167L18.9799 42.6398C18.7969 42.4896 18.5331 42.4896 18.35 42.6398L16.1839 44.4149V40.0224C16.1839 40.0224 16.8119 40.1032 17.1635 39.9152C17.5461 40.3738 18.112 40.6395 18.7092 40.641C19.3024 40.6247 19.8619 40.3616 20.2529 39.9152C20.4342 39.9822 20.6242 40.0227 20.817 40.0356C20.9196 40.0444 21.0228 40.0444 21.1254 40.0356V44.4167ZM23.2671 35.8104C23.5252 36.1469 23.5605 36.604 23.3574 36.9762C23.1594 37.3186 22.7809 37.515 22.3871 37.4802C22.1136 37.4574 21.8732 37.6599 21.8493 37.9333C21.8726 38.1545 21.8341 38.3777 21.7384 38.5783C21.5521 38.9365 21.1709 39.15 20.7681 39.1217C20.6537 39.1133 20.5414 39.0866 20.4353 39.0427H20.424H20.4109H20.3958H20.3601H20.3488H20.1251C20.0345 38.9857 19.9257 38.9648 19.8204 38.9844H19.7377L19.7076 39.0014L19.6907 39.0183L19.6757 39.0371L19.6606 39.0578H19.6493H19.6268C19.5258 39.2735 19.3523 39.447 19.1366 39.548C18.6277 39.7861 18.0222 39.5666 17.784 39.0578C17.6676 38.8098 17.3728 38.7022 17.124 38.8171C16.9172 38.9876 16.6516 39.0702 16.3845 39.0469C15.8217 38.9978 15.4052 38.5018 15.4543 37.939C15.4568 37.9088 15.4566 37.8784 15.4536 37.8483C15.4267 37.5745 15.1829 37.3743 14.909 37.4012C14.6735 37.4202 14.4386 37.3565 14.2449 37.2212C13.7843 36.8996 13.6716 36.2654 13.9933 35.8048C14.009 35.7827 14.0228 35.7593 14.0346 35.7349C14.1545 35.4884 14.0518 35.1913 13.8052 35.0715C13.5904 34.9705 13.4175 34.7976 13.3165 34.5828C13.0771 34.0734 13.2958 33.4663 13.8052 33.2268C13.834 33.2132 13.8615 33.1969 13.8871 33.178C14.1081 33.0158 14.1556 32.705 13.9933 32.4841C13.8607 32.29 13.7995 32.0559 13.82 31.8217C13.869 31.262 14.3625 30.848 14.9222 30.8971C14.9523 30.8996 14.9827 30.8994 15.0128 30.8964C15.2867 30.8695 15.4868 30.6257 15.4599 30.3518C15.4279 29.9576 15.6264 29.5803 15.9695 29.3834C16.3123 29.1865 16.7381 29.2054 17.062 29.4323C17.0841 29.448 17.1075 29.4618 17.1318 29.4737C17.3784 29.5935 17.6754 29.4909 17.7953 29.2443C17.9603 28.8845 18.3209 28.6549 18.7167 28.6576V28.6538C19.0881 28.7087 19.3977 28.9663 19.5196 29.3214C19.636 29.5694 19.9308 29.6769 20.1796 29.562C20.5153 29.3024 20.973 29.2663 21.3454 29.4699C21.6877 29.6679 21.8842 30.0463 21.8493 30.4402C21.8266 30.7137 22.0291 30.9541 22.3025 30.9779C22.5236 30.9547 22.7468 30.9931 22.9475 31.0889C22.9866 31.1093 23.0244 31.1322 23.0606 31.1576C23.5208 31.4799 23.6327 32.1141 23.3104 32.5744C23.154 32.7988 23.2087 33.1073 23.4326 33.2644C23.6362 33.3548 23.8106 33.5 23.9365 33.6838C23.9581 33.7183 23.9777 33.7541 23.9951 33.7909C24.236 34.3019 24.0169 34.9114 23.5059 35.1523C23.2588 35.2686 23.1521 35.5627 23.2671 35.8104ZM37.821 37.2376C37.8209 37.455 37.7343 37.6633 37.5803 37.8167C37.427 37.9712 37.2187 38.0586 37.0011 38.0593H23.724V38.0537C24.4907 37.536 24.8049 36.562 24.4856 35.6938C24.5829 35.6134 24.6724 35.5239 24.7529 35.4266C25.4584 34.5734 25.3387 33.3099 24.4856 32.6044C24.5287 32.4874 24.561 32.3666 24.5818 32.2435C24.7666 31.1489 24.029 30.1117 22.9343 29.9268C22.9135 29.8067 22.8818 29.6886 22.8397 29.5742C22.4558 28.5325 21.3003 27.9992 20.2586 28.3831C20.1788 28.2869 20.0904 28.1984 19.9942 28.1187C19.1411 27.4116 17.8763 27.53 17.1692 28.3831C16.6115 28.1781 15.9916 28.2311 15.4769 28.5279C14.9594 28.8246 14.6015 29.337 14.501 29.925C14.3804 29.9458 14.2621 29.9777 14.1474 30.0201C13.1061 30.4051 12.5741 31.5613 12.9591 32.6026C12.8618 32.683 12.7723 32.7725 12.6918 32.8699C11.9863 33.723 12.106 34.9865 12.9591 35.692C12.6375 36.5585 12.9478 37.5326 13.7112 38.0537H10.8437C10.3907 38.0516 10.0241 37.6849 10.022 37.232V3.81829C10.0241 3.36532 10.3907 2.99865 10.8437 2.99658H32.3548V6.65385C32.3555 7.13531 32.5475 7.59665 32.8888 7.93624C33.2282 8.2763 33.6888 8.46772 34.1693 8.46838H37.821V37.2376Z" fill="#295C7A"/>
<path d="M33.782 27.9526H23.7447C23.7243 27.9514 23.7039 27.9514 23.6835 27.9526C23.4088 27.9695 23.1999 28.2059 23.2168 28.4806C23.2338 28.7553 23.4701 28.9642 23.7448 28.9473H33.7821C34.0332 28.9319 34.2334 28.7316 34.2488 28.4806C34.2656 28.2059 34.0566 27.9695 33.782 27.9526Z" fill="#295C7A"/>
<path d="M34.2468 26.2691C34.2637 25.9944 34.0547 25.7581 33.7801 25.7412H14.0628C14.0424 25.7399 14.022 25.7399 14.0016 25.7412C13.7269 25.7581 13.518 25.9944 13.5349 26.2691C13.5518 26.5439 13.7882 26.7528 14.0629 26.7358H33.7802C34.0312 26.7205 34.2314 26.5203 34.2468 26.2691Z" fill="#295C7A"/>
<path d="M17.4061 12.7065C17.155 12.722 16.9548 12.9222 16.9393 13.1733C16.9224 13.4481 17.1314 13.6844 17.4061 13.7012H30.4388C30.6899 13.6858 30.89 13.4856 30.9056 13.2344C30.9225 12.9597 30.7135 12.7234 30.4388 12.7065H17.4061Z" fill="#295C7A"/>
<path d="M14.0628 24.5244H33.7801C34.0312 24.509 34.2314 24.3088 34.2469 24.0576C34.2638 23.7829 34.0548 23.5466 33.7801 23.5297H14.0628C14.0424 23.5285 14.022 23.5285 14.0016 23.5297C13.7269 23.5466 13.518 23.783 13.5348 24.0576C13.5517 24.3324 13.7881 24.5414 14.0628 24.5244Z" fill="#295C7A"/>
<path d="M14.0628 21.3184C13.8117 21.3338 13.6116 21.534 13.5961 21.7852C13.5791 22.0599 13.7881 22.2962 14.0628 22.3131H33.7801C34.0312 22.2976 34.2314 22.0974 34.2469 21.8463C34.2638 21.5715 34.0548 21.3352 33.7801 21.3184H14.0628Z" fill="#295C7A"/>
<path d="M33.7801 19.1074H14.0628C14.0424 19.1061 14.022 19.1061 14.0016 19.1074C13.7269 19.1243 13.518 19.3606 13.5348 19.6353C13.5517 19.91 13.7881 20.1189 14.0627 20.1021H33.78C34.0311 20.0866 34.2313 19.8864 34.2468 19.6353C34.2637 19.3606 34.0547 19.1243 33.7801 19.1074Z" fill="#295C7A"/>
</g>
<defs>
<clipPath id="clip0_964_6358">
<rect width="29.7094" height="44" fill="white" transform="translate(9 2)"/>
</clipPath>
</defs>
</svg>
