<svg width="48" height="48" viewBox="0 0 48 48" fill="none" xmlns="http://www.w3.org/2000/svg">
<g clip-path="url(#clip0_964_6377)">
<path d="M17.2898 10.4766H9.59637C8.88437 10.4766 8.30731 11.0536 8.30731 11.7656C8.30731 12.4776 8.88437 13.0547 9.59637 13.0547H17.2898C18.0015 13.0547 18.5789 12.4776 18.5789 11.7656C18.5789 11.0536 18.0015 10.4766 17.2898 10.4766Z" fill="#295C7A"/>
<path d="M17.2898 15.6331H9.59637C8.88437 15.6331 8.30731 16.2101 8.30731 16.9221C8.30731 17.6341 8.88437 18.2112 9.59637 18.2112H17.2898C18.0015 18.2112 18.5789 17.6341 18.5789 16.9221C18.5789 16.2101 18.0015 15.6331 17.2898 15.6331Z" fill="#295C7A"/>
<path d="M17.2898 20.7898H9.59637C8.88437 20.7898 8.30731 21.3669 8.30731 22.0789C8.30731 22.7909 8.88437 23.3679 9.59637 23.3679H17.2898C18.0015 23.3679 18.5789 22.7909 18.5789 22.0789C18.5789 21.3669 18.0015 20.7898 17.2898 20.7898Z" fill="#295C7A"/>
<path d="M17.2898 25.9463H9.59637C8.88437 25.9463 8.30731 26.5233 8.30731 27.2354C8.30731 27.9474 8.88437 28.5244 9.59637 28.5244H17.2898C18.0015 28.5244 18.5789 27.9474 18.5789 27.2354C18.5789 26.5233 18.0015 25.9463 17.2898 25.9463Z" fill="#295C7A"/>
<path d="M17.2898 31.1892H9.59637C8.88437 31.1892 8.30731 31.7666 8.30731 32.4783C8.30731 33.1903 8.88437 33.7673 9.59637 33.7673H17.2898C18.0015 33.7673 18.5789 33.1903 18.5789 32.4783C18.5789 31.7666 18.0015 31.1892 17.2898 31.1892Z" fill="#295C7A"/>
<path d="M21.6189 13.0547H29.3123C30.0243 13.0547 30.6014 12.4776 30.6014 11.7656C30.6014 11.0536 30.0243 10.4766 29.3123 10.4766H21.6189C20.9072 10.4766 20.3298 11.0536 20.3298 11.7656C20.3298 12.4776 20.9072 13.0547 21.6189 13.0547Z" fill="#295C7A"/>
<path d="M21.6189 18.2112H29.3123C30.0243 18.2112 30.6014 17.6341 30.6014 16.9221C30.6014 16.2101 30.0243 15.6331 29.3123 15.6331H21.6189C20.9072 15.6331 20.3298 16.2101 20.3298 16.9221C20.3298 17.6341 20.9072 18.2112 21.6189 18.2112Z" fill="#295C7A"/>
<path d="M26.6133 22.0789C26.6133 21.3669 26.0363 20.7898 25.3243 20.7898H21.6189C20.9072 20.7898 20.3298 21.3669 20.3298 22.0789C20.3298 22.7909 20.9072 23.3679 21.6189 23.3679H25.3243C26.0363 23.3679 26.6133 22.7909 26.6133 22.0789Z" fill="#295C7A"/>
<path d="M38.8249 31.7333C38.2696 31.2879 37.4586 31.3768 37.0128 31.9321L33.6928 36.0712L31.6373 34.582C31.061 34.1641 30.2546 34.293 29.837 34.8694C29.4194 35.4461 29.5483 36.2521 30.1247 36.6697L33.1738 38.8789C33.4021 39.0441 33.6666 39.1243 33.9295 39.1243C34.3078 39.1243 34.6818 38.9581 34.9355 38.6416L39.024 33.5454C39.4694 32.9902 39.3805 32.1788 38.8249 31.7333Z" fill="#295C7A"/>
<path d="M42.0831 27.7762C40.404 26.0675 38.2465 24.9906 35.9087 24.6734V7.1915C35.9087 4.32904 33.5797 2 30.7172 2H8.19183C5.32904 2 3 4.32904 3 7.1915V37.0524C3 39.9152 5.32904 42.2443 8.1915 42.2443H26.3085C28.3472 44.6391 31.2785 46 34.4498 46C40.3529 46 45.1554 41.1942 45.1554 35.287C45.1554 32.4591 44.0644 29.7917 42.0831 27.7762V27.7762ZM5.57812 37.0524V7.1915C5.57812 5.7507 6.7507 4.57812 8.19183 4.57812H30.7172C32.1583 4.57812 33.3306 5.7507 33.3306 7.1915V24.6324C27.9514 25.1941 23.7442 29.7578 23.7442 35.287C23.7442 36.8195 24.0638 38.3012 24.6767 39.6658H8.19183C6.7507 39.6658 5.57812 38.4936 5.57812 37.0524ZM34.4498 43.4219C31.8753 43.4219 29.5087 42.2399 27.9561 40.1794C26.8873 38.7604 26.322 37.0689 26.322 35.287C26.322 30.8015 29.9683 27.1522 34.4498 27.1522C34.4921 27.1522 34.5347 27.1528 34.577 27.1535L34.5968 27.1538C36.7362 27.1918 38.7419 28.0545 40.2445 29.5833C41.7487 31.1137 42.5772 33.1396 42.5772 35.287C42.5772 39.7726 38.9313 43.4219 34.4498 43.4219V43.4219Z" fill="#295C7A"/>
</g>
<defs>
<clipPath id="clip0_964_6377">
<rect width="42.1953" height="44" fill="white" transform="translate(3 2)"/>
</clipPath>
</defs>
</svg>
