<svg width="48" height="48" viewBox="0 0 48 48" fill="none" xmlns="http://www.w3.org/2000/svg">
<g clip-path="url(#clip0_964_6349)">
<g clip-path="url(#clip1_964_6349)">
<path d="M16.1094 3.55273H7.83265C7.43463 3.55273 7.11212 3.87534 7.11212 4.27326C7.11212 4.67118 7.43463 4.99378 7.83265 4.99378H16.1094C16.5074 4.99378 16.8299 4.67118 16.8299 4.27326C16.8299 3.87534 16.5073 3.55273 16.1094 3.55273Z" fill="#295C7A"/>
<path d="M16.1094 6.87793H7.83265C7.43463 6.87793 7.11212 7.20053 7.11212 7.59845C7.11212 7.99638 7.43463 8.31898 7.83265 8.31898H16.1094C16.5074 8.31898 16.8299 7.99638 16.8299 7.59845C16.8299 7.20053 16.5073 6.87793 16.1094 6.87793Z" fill="#295C7A"/>
<path d="M45.1459 42.4708L29.8761 28.3214C30.5725 27.5497 31.2299 26.7702 31.8416 25.9872C33.022 26.8142 34.6623 26.7052 35.72 25.6549C36.9099 24.4731 36.9165 22.5535 35.7346 21.3634L29.3759 14.9611C28.1968 13.7739 26.2716 13.7674 25.0844 14.9464C24.1533 15.8711 23.9487 17.2546 24.4724 18.3812C21.56 20.6094 18.5902 23.5325 16.2529 26.5443C15.1517 26.0209 13.7616 26.1921 12.8131 27.1342C11.6232 28.3159 11.6163 30.2355 12.7985 31.4256L19.1571 37.8279C20.3377 39.0167 22.2585 39.0245 23.4486 37.8425C24.5056 36.7925 24.6259 35.1517 23.8074 33.9665C24.5963 33.3586 25.3823 32.7051 26.1605 32.0121L40.205 47.3779C41.1593 48.4219 42.7902 48.4622 43.7946 47.4646L45.2079 46.0609C46.2108 45.065 46.1864 43.435 45.1459 42.4708ZM26.0999 15.9689C26.7248 15.3483 27.7357 15.3546 28.3535 15.9766L34.7122 22.379C35.3327 23.0038 35.3295 24.0118 34.7045 24.6324C34.081 25.2517 33.0701 25.2481 32.4509 24.6247L26.0922 18.2224C25.4731 17.599 25.4765 16.5881 26.0999 15.9689ZM25.3524 19.5224L30.7871 24.9944C28.5691 27.8534 25.7016 30.7028 22.8219 32.9053L17.3872 27.4334C19.5483 24.6474 22.4039 21.7777 25.3524 19.5224ZM22.4331 36.8202C21.8089 37.4402 20.8003 37.4375 20.1796 36.8125L13.8209 30.4102C13.2003 29.7854 13.2037 28.7773 13.8286 28.1567C14.4529 27.5367 15.4614 27.5395 16.0821 28.1644L22.4409 34.5667C23.0601 35.19 23.0566 36.2009 22.4331 36.8202ZM44.1925 45.0385L42.7792 46.4422C42.3448 46.8737 41.6599 46.8337 41.2687 46.4057L27.2213 31.0367C27.5042 30.769 27.7861 30.4979 28.066 30.22C28.3476 29.9404 28.6222 29.6585 28.8936 29.3757L44.1663 43.5278C44.6016 43.9312 44.6168 44.6171 44.1925 45.0385Z" fill="#295C7A"/>
<path d="M36.5607 46.7131C36.4266 46.7352 36.2888 46.7465 36.1512 46.7465H5.98531C4.61343 46.7465 3.49738 45.6304 3.49738 44.2585V2.92897C3.49738 1.55719 4.61343 0.441048 5.98531 0.441048H29.4659C29.563 0.441048 29.6585 0.450751 29.7522 0.466507V5.39902C29.7522 7.56549 31.5148 9.32799 33.6812 9.32799H38.6137C38.6295 9.42185 38.6392 9.51725 38.6392 9.61428V34.7577C38.6392 35.1556 38.9617 35.4782 39.3597 35.4782C39.7577 35.4782 40.0802 35.1556 40.0802 34.7577V9.61428C40.0802 8.77252 39.7524 7.98119 39.1574 7.38603L31.6942 -0.0769607C31.0991 -0.67221 30.3078 -1 29.4659 -1H5.98531C3.81893 -1 2.05634 0.762594 2.05634 2.92897V44.2584C2.05634 46.4249 3.81893 48.1875 5.98531 48.1875H36.1512C36.3672 48.1875 36.584 48.1697 36.7957 48.1347C37.1882 48.0699 37.454 47.699 37.389 47.3063C37.3242 46.9138 36.953 46.6475 36.5607 46.7131ZM37.6202 7.88694H33.6812C32.3093 7.88694 31.1933 6.7708 31.1933 5.39902V1.46006L37.6202 7.88694Z" fill="#295C7A"/>
</g>
</g>
<defs>
<clipPath id="clip0_964_6349">
<rect width="48" height="48" fill="white"/>
</clipPath>
<clipPath id="clip1_964_6349">
<rect width="44" height="49.1878" fill="white" transform="translate(2 -1)"/>
</clipPath>
</defs>
</svg>
