<svg width="49" height="48" viewBox="0 0 49 48" fill="none" xmlns="http://www.w3.org/2000/svg">
<path d="M13.1214 16.9828C12.7862 16.6477 12.2414 16.6477 11.9063 16.9828C11.5703 17.3188 11.5703 17.8628 11.9063 18.198C12.2415 18.534 12.7863 18.534 13.1214 18.198C13.4573 17.8628 13.4573 17.3188 13.1214 16.9828Z" fill="#295C7A"/>
<path d="M24.7593 40.4757C25.1382 39.9624 25.343 39.3441 25.343 38.694C25.343 37.0356 23.9938 35.6863 22.3353 35.6863H7.72639C6.92262 35.6863 6.16731 35.9991 5.59952 36.5671C5.03148 37.1349 4.71866 37.8902 4.71866 38.694C4.71866 39.3599 4.9366 39.9758 5.30433 40.4746C3.93595 41.1941 3 42.6293 3 44.2797V45.1391C3 45.6137 3.38483 45.9984 3.85938 45.9984H26.2023C26.6768 45.9984 27.0616 45.6137 27.0616 45.1391V44.2797C27.0616 42.63 26.1266 41.1955 24.7593 40.4757ZM6.81477 37.7822C7.05805 37.5388 7.38187 37.4049 7.72639 37.4049H22.3353C23.046 37.4049 23.6242 37.9831 23.6242 38.6938C23.6242 39.0384 23.4902 39.3622 23.2468 39.6055C23.0035 39.8489 22.6797 39.9829 22.3352 39.9829H7.72639C7.0156 39.9829 6.43741 39.4046 6.43741 38.6939C6.43741 38.3494 6.57139 38.0256 6.81477 37.7822ZM4.71866 44.2797C4.71866 42.8582 5.87521 41.7016 7.2967 41.7016H7.72639H22.3353H22.7649C24.1864 41.7016 25.343 42.8582 25.343 44.2797H4.71866Z" fill="#295C7A"/>
<path d="M46.2002 38.1043C45.9084 37.652 45.5601 37.2521 45.1651 36.9155L41.1497 33.4133C41.1184 33.3662 41.0821 33.3216 41.0406 33.28C40.9708 33.2104 40.8918 33.156 40.8077 33.1152L38.3794 30.9973L27.1396 21.1926C27.5997 20.7116 27.8531 20.0826 27.8531 19.4138C27.8531 18.7247 27.5849 18.0772 27.0973 17.5897C26.8847 17.3774 26.6431 17.2104 26.3848 17.0881L27.4247 16.0483C27.7153 16.1255 28.0139 16.1651 28.3128 16.1651C29.1929 16.165 30.0731 15.83 30.7431 15.16C31.3926 14.5106 31.7502 13.6474 31.7502 12.7293C31.7502 11.8112 31.3926 10.948 30.7431 10.2986L23.4515 3.0071C22.8021 2.35767 21.9388 2 21.0204 2C20.1025 2 19.2395 2.35767 18.5901 3.0071C17.6926 3.90463 17.3971 5.179 17.7019 6.32558L7.32707 16.7003C7.04038 16.6241 6.74209 16.5839 6.43735 16.5839C5.51885 16.5839 4.65596 16.9413 4.00704 17.5901C2.66676 18.9304 2.66676 21.1112 4.00704 22.4516L11.2986 29.7432C11.9688 30.4133 12.8491 30.7484 13.7293 30.7484C14.6097 30.7484 15.4899 30.4133 16.1602 29.7432C17.0577 28.8456 17.3531 27.5713 17.0484 26.4247L18.0861 25.3869C18.2108 25.6473 18.38 25.8876 18.5902 26.0977C19.0771 26.5847 19.7245 26.8529 20.4134 26.8529C21.0815 26.8529 21.7103 26.6 22.1919 26.1404L34.1635 39.895C34.1965 39.9466 34.235 39.9956 34.2801 40.0407C34.2955 40.056 34.3118 40.0701 34.328 40.084L37.8954 44.1827C37.9841 44.2873 38.0789 44.3903 38.1773 44.4887C39.157 45.4681 40.4512 45.9997 41.8098 45.9997C42.0493 45.9997 42.2911 45.9832 42.5332 45.9496C44.1513 45.7257 45.5497 44.7577 46.3698 43.2935C47.2681 41.6888 47.2012 39.6515 46.2002 38.1043ZM19.8055 4.22243C20.1303 3.89767 20.5619 3.71875 21.0205 3.71875C21.4798 3.71875 21.9116 3.89767 22.2363 4.22243L29.5279 11.514C29.8527 11.8387 30.0315 12.2704 30.0315 12.7294C30.0315 13.1884 29.8527 13.62 29.5278 13.9448C28.8579 14.6149 27.7677 14.6149 27.0978 13.9448L19.806 6.65291C19.8058 6.65274 19.8057 6.65266 19.8055 6.65248C19.1355 5.98252 19.1355 4.8924 19.8055 4.22243ZM14.9448 28.5279C14.2747 29.198 13.184 29.1981 12.5139 28.5279L5.22237 21.2363C4.55214 20.5661 4.55214 19.4757 5.22237 18.8054C5.54653 18.4812 5.9781 18.3026 6.43735 18.3026C6.89652 18.3026 7.32784 18.4811 7.65191 18.8051L14.9447 26.0979C15.6149 26.7678 15.6149 27.858 14.9448 28.5279ZM18.563 22.4796L16.1601 24.8826L8.86775 17.5903L18.5901 7.86773L25.8823 15.16L23.4751 17.5674C23.4672 17.5748 23.4596 17.582 23.4513 17.5902L18.5926 22.449C18.5826 22.4589 18.5728 22.4692 18.563 22.4796ZM21.6314 24.2723C21.6297 24.2741 21.6281 24.2757 21.6264 24.2774L21.0212 24.8826C20.8589 25.0448 20.6431 25.1342 20.4133 25.1342C20.1836 25.1342 19.9677 25.0448 19.8054 24.8825C19.6429 24.7201 19.5535 24.504 19.5535 24.2741C19.5535 24.0492 19.6393 23.8375 19.7951 23.6778L24.6765 18.7965C25.011 18.4711 25.5519 18.4752 25.8825 18.8054C26.0449 18.9678 26.1344 19.1839 26.1344 19.4138C26.1344 19.6435 26.0452 19.8589 25.8824 20.0213L25.2808 20.6229C25.2767 20.627 25.2725 20.6311 25.2685 20.6352L21.6314 24.2723ZM23.411 24.9233L25.9227 22.4117L36.5567 31.6874L32.6763 35.5679L23.411 24.9233ZM33.8073 36.8674L37.8549 32.8198L39.1532 33.9522L34.9384 38.1671L33.8073 36.8674ZM44.8702 42.4539C44.3156 43.4441 43.3779 44.0977 42.2976 44.2472C41.2198 44.3964 40.1608 44.0414 39.3923 43.2733C39.3262 43.2073 39.263 43.1385 39.204 43.0687C39.2013 43.0654 39.1985 43.0621 39.1957 43.059L36.0693 39.4666L40.4513 35.0845L44.0392 38.2141C44.0419 38.2165 44.0446 38.2188 44.0475 38.2212C44.316 38.4495 44.5543 38.7238 44.7565 39.0371C45.4064 40.0413 45.452 41.4145 44.8702 42.4539Z" fill="#295C7A"/>
<path d="M19.1978 10.9062C18.8622 10.5706 18.3182 10.5706 17.9825 10.9062L14.3363 14.5524C14.0008 14.888 14.0008 15.4321 14.3363 15.7676C14.5042 15.9355 14.7241 16.0193 14.944 16.0193C15.1639 16.0193 15.3838 15.9354 15.5517 15.7676L19.1978 12.1215C19.5334 11.786 19.5334 11.2419 19.1978 10.9062Z" fill="#295C7A"/>
</svg>
