<svg width="49" height="48" viewBox="0 0 49 48" fill="none" xmlns="http://www.w3.org/2000/svg">
<g clip-path="url(#clip0_964_6367)">
<path d="M11.3871 42.4517H7.83871C7.65049 42.4517 7.46998 42.5264 7.33689 42.6595C7.2038 42.7926 7.12903 42.9731 7.12903 43.1613C7.12903 43.3496 7.2038 43.5301 7.33689 43.6632C7.46998 43.7962 7.65049 43.871 7.83871 43.871H11.3871C11.5753 43.871 11.7558 43.7962 11.8889 43.6632C12.022 43.5301 12.0968 43.3496 12.0968 43.1613C12.0968 42.9731 12.022 42.7926 11.8889 42.6595C11.7558 42.5264 11.5753 42.4517 11.3871 42.4517Z" fill="#295C7A"/>
<path d="M14.2258 42.4517H13.5161C13.3279 42.4517 13.1474 42.5264 13.0143 42.6595C12.8812 42.7926 12.8065 42.9731 12.8065 43.1613C12.8065 43.3496 12.8812 43.5301 13.0143 43.6632C13.1474 43.7962 13.3279 43.871 13.5161 43.871H14.2258C14.414 43.871 14.5945 43.7962 14.7276 43.6632C14.8607 43.5301 14.9355 43.3496 14.9355 43.1613C14.9355 42.9731 14.8607 42.7926 14.7276 42.6595C14.5945 42.5264 14.414 42.4517 14.2258 42.4517Z" fill="#295C7A"/>
<path d="M9.25808 14.7742H31.9678C32.156 14.7742 32.3365 14.6994 32.4696 14.5663C32.6027 14.4332 32.6774 14.2527 32.6774 14.0645V11.2258C32.6774 11.0376 32.6027 10.8571 32.4696 10.724C32.3365 10.5909 32.156 10.5161 31.9678 10.5161H9.25808C9.06986 10.5161 8.88935 10.5909 8.75626 10.724C8.62317 10.8571 8.5484 11.0376 8.5484 11.2258V14.0645C8.5484 14.2527 8.62317 14.4332 8.75626 14.5663C8.88935 14.6994 9.06986 14.7742 9.25808 14.7742ZM9.96776 11.9355H31.2581V13.3548H9.96776V11.9355Z" fill="#295C7A"/>
<path d="M9.25808 20.4514H31.9678C32.156 20.4514 32.3365 20.3767 32.4696 20.2436C32.6027 20.1105 32.6774 19.93 32.6774 19.7417V16.903C32.6774 16.7148 32.6027 16.5343 32.4696 16.4012C32.3365 16.2681 32.156 16.1934 31.9678 16.1934H9.25808C9.06986 16.1934 8.88935 16.2681 8.75626 16.4012C8.62317 16.5343 8.5484 16.7148 8.5484 16.903V19.7417C8.5484 19.93 8.62317 20.1105 8.75626 20.2436C8.88935 20.3767 9.06986 20.4514 9.25808 20.4514ZM9.96776 17.6127H31.2581V19.0321H9.96776V17.6127Z" fill="#295C7A"/>
<path d="M9.25808 26.1292H31.9678C32.156 26.1292 32.3365 26.0544 32.4696 25.9213C32.6027 25.7882 32.6774 25.6077 32.6774 25.4195V22.5808C32.6774 22.3926 32.6027 22.212 32.4696 22.079C32.3365 21.9459 32.156 21.8711 31.9678 21.8711H9.25808C9.06986 21.8711 8.88935 21.9459 8.75626 22.079C8.62317 22.212 8.5484 22.3926 8.5484 22.5808V25.4195C8.5484 25.6077 8.62317 25.7882 8.75626 25.9213C8.88935 26.0544 9.06986 26.1292 9.25808 26.1292ZM9.96776 23.2904H31.2581V24.7098H9.96776V23.2904Z" fill="#295C7A"/>
<path d="M22.742 27.5483H9.25808C9.06986 27.5483 8.88935 27.6231 8.75626 27.7562C8.62317 27.8893 8.5484 28.0698 8.5484 28.258C8.5484 28.4462 8.62317 28.6267 8.75626 28.7598C8.88935 28.8929 9.06986 28.9677 9.25808 28.9677H22.742C22.9302 28.9677 23.1107 28.8929 23.2438 28.7598C23.3769 28.6267 23.4516 28.4462 23.4516 28.258C23.4516 28.0698 23.3769 27.8893 23.2438 27.7562C23.1107 27.6231 22.9302 27.5483 22.742 27.5483Z" fill="#295C7A"/>
<path d="M18.4839 29.6772H9.25808C9.06986 29.6772 8.88935 29.752 8.75626 29.8851C8.62317 30.0182 8.5484 30.1987 8.5484 30.3869C8.5484 30.5751 8.62317 30.7557 8.75626 30.8887C8.88935 31.0218 9.06986 31.0966 9.25808 31.0966H18.4839C18.6721 31.0966 18.8526 31.0218 18.9857 30.8887C19.1188 30.7557 19.1936 30.5751 19.1936 30.3869C19.1936 30.1987 19.1188 30.0182 18.9857 29.8851C18.8526 29.752 18.6721 29.6772 18.4839 29.6772Z" fill="#295C7A"/>
<path d="M10.6774 33.226C10.8657 33.226 11.0462 33.1512 11.1793 33.0181C11.3123 32.885 11.3871 32.7045 11.3871 32.5163C11.3871 32.3281 11.3123 32.1476 11.1793 32.0145C11.0462 31.8814 10.8657 31.8066 10.6774 31.8066H9.25808C9.06986 31.8066 8.88935 31.8814 8.75626 32.0145C8.62317 32.1476 8.5484 32.3281 8.5484 32.5163C8.5484 32.7045 8.62317 32.885 8.75626 33.0181C8.88935 33.1512 9.06986 33.226 9.25808 33.226H10.6774Z" fill="#295C7A"/>
<path d="M13.5162 33.226C13.7044 33.226 13.8849 33.1512 14.018 33.0181C14.1511 32.885 14.2258 32.7045 14.2258 32.5163C14.2258 32.3281 14.1511 32.1476 14.018 32.0145C13.8849 31.8814 13.7044 31.8066 13.5162 31.8066H12.8065C12.6183 31.8066 12.4378 31.8814 12.3047 32.0145C12.1716 32.1476 12.0968 32.3281 12.0968 32.5163C12.0968 32.7045 12.1716 32.885 12.3047 33.0181C12.4378 33.1512 12.6183 33.226 12.8065 33.226H13.5162Z" fill="#295C7A"/>
<path d="M44.0323 35.3548C44.0296 33.2199 43.2262 31.1635 41.7808 29.5922C40.3354 28.0209 38.3531 27.049 36.2258 26.8685V8.3871C36.2258 8.2939 36.2075 8.20161 36.1718 8.11551C36.1361 8.0294 36.0839 7.95117 36.018 7.88527L30.3405 2.20785C30.2746 2.14195 30.1964 2.08967 30.1103 2.05401C30.0242 2.01835 29.9319 2 29.8387 2H5.70968C5.52146 2 5.34095 2.07477 5.20786 2.20786C5.07477 2.34095 5 2.52146 5 2.70968V45.2903C5 45.4785 5.07477 45.659 5.20786 45.7921C5.34095 45.9252 5.52146 46 5.70968 46H35.5161C35.7043 46 35.8849 45.9252 36.0179 45.7921C36.151 45.659 36.2258 45.4785 36.2258 45.2903V43.8412C38.3531 43.6607 40.3354 42.6887 41.7808 41.1174C43.2262 39.5461 44.0296 37.4898 44.0323 35.3548ZM30.5484 4.42293L33.8029 7.67742H30.5484V4.42293ZM6.41935 44.5806V3.41935H29.129V8.3871C29.129 8.57531 29.2038 8.75582 29.3369 8.88891C29.47 9.022 29.6505 9.09677 29.8387 9.09677H34.8065V26.8685C32.6785 27.047 30.6953 28.0184 29.2499 29.5902C27.8044 31.162 27.0022 33.2195 27.0022 35.3548C27.0022 37.4902 27.8044 39.5477 29.2499 41.1195C30.6953 42.6913 32.6785 43.6627 34.8065 43.8412V44.5806H6.41935ZM35.5161 42.4516C34.1125 42.4516 32.7404 42.0354 31.5734 41.2556C30.4063 40.4758 29.4967 39.3674 28.9596 38.0707C28.4224 36.7739 28.2819 35.347 28.5557 33.9703C28.8295 32.5937 29.5055 31.3292 30.498 30.3367C31.4905 29.3442 32.755 28.6683 34.1316 28.3944C35.5083 28.1206 36.9352 28.2611 38.2319 28.7983C39.5287 29.3354 40.6371 30.245 41.4169 31.4121C42.1967 32.5791 42.6129 33.9512 42.6129 35.3548C42.6108 37.2364 41.8624 39.0402 40.5319 40.3707C39.2015 41.7011 37.3977 42.4495 35.5161 42.4516Z" fill="#295C7A"/>
<path d="M40.9857 32.724C40.9198 32.6581 40.8416 32.6058 40.7555 32.5701C40.6694 32.5345 40.5771 32.5161 40.4839 32.5161C40.3907 32.5161 40.2984 32.5345 40.2123 32.5701C40.1262 32.6058 40.0479 32.6581 39.982 32.724L35.4061 37.2999L32.3329 35.456C32.253 35.408 32.1644 35.3763 32.0722 35.3626C31.98 35.3489 31.886 35.3534 31.7956 35.376C31.7052 35.3986 31.6201 35.4388 31.5452 35.4943C31.4704 35.5498 31.4071 35.6195 31.3592 35.6994C31.3112 35.7793 31.2795 35.8679 31.2658 35.9601C31.2521 36.0523 31.2566 36.1462 31.2792 36.2367C31.3018 36.3271 31.342 36.4122 31.3975 36.487C31.453 36.5619 31.5227 36.6251 31.6026 36.6731L35.151 38.8021C35.2867 38.8836 35.4457 38.9174 35.6028 38.8981C35.7599 38.8788 35.906 38.8075 36.018 38.6957L40.9857 33.7279C41.0516 33.662 41.104 33.5838 41.1396 33.4976C41.1753 33.4115 41.1937 33.3192 41.1937 33.226C41.1937 33.1327 41.1753 33.0404 41.1396 32.9543C41.104 32.8681 41.0516 32.7899 40.9857 32.724Z" fill="#295C7A"/>
</g>
<defs>
<clipPath id="clip0_964_6367">
<rect width="39.0323" height="44" fill="white" transform="translate(5 2)"/>
</clipPath>
</defs>
</svg>
